<svg xmlns="http://www.w3.org/2000/svg" width="1280" height="720" viewBox="0 0 1280 720">
<defs>
  <linearGradient id="wall" x1="0" y1="0" x2="0" y2="1"><stop stop-color="#372a26"/><stop offset="1" stop-color="#1b1718"/></linearGradient>
  <linearGradient id="night-window" x1="0" y1="0" x2="0" y2="1"><stop stop-color="#20364a"/><stop offset="1" stop-color="#52616a"/></linearGradient>
  <linearGradient id="floor" x1="0" y1="0" x2="0" y2="1"><stop stop-color="#33231d"/><stop offset="1" stop-color="#171416"/></linearGradient>
  <radialGradient id="lamp-glow"><stop stop-color="#ffdfa1" stop-opacity=".35"/><stop offset="1" stop-color="#ffdfa1" stop-opacity="0"/></radialGradient>
  <linearGradient id="booth" x1="0" y1="0" x2="0" y2="1"><stop stop-color="#793d32"/><stop offset="1" stop-color="#3d211f"/></linearGradient>
</defs>
<!-- Warm, quiet diner interior; separate vector groups form editable visual layers. -->
<g id="room">
  <rect width="1280" height="720" fill="url(#wall)"/>
  <path d="M0 470H1280V720H0Z" fill="url(#floor)"/>
  <path d="M0 474H1280M0 526H1280M0 617H1280M0 690H1280" stroke="#8c684c" stroke-width="5" opacity=".38"/>
  <path d="M0 82H1280M0 104H1280M0 298H1280" stroke="#8a6854" stroke-width="4" opacity=".2"/>
  <path d="M50 0V470M1228 0V470" stroke="#110f12" stroke-width="18" opacity=".55"/>
</g>
<g id="street-window">
  <rect x="835" y="88" width="344" height="324" rx="8" fill="#171719" stroke="#a0744d" stroke-width="18"/>
  <rect x="856" y="109" width="302" height="282" fill="url(#night-window)"/>
  <path d="M856 306Q923 278 1003 305T1158 298V391H856Z" fill="#26333b"/>
  <path d="M856 330Q922 305 1000 329T1158 322" fill="none" stroke="#81909a" stroke-width="5" opacity=".5"/>
  <path d="M1006 109V391M856 258H1158" stroke="#16171a" stroke-width="12"/>
  <g fill="#f4c579" opacity=".72">
    <rect x="884" y="177" width="13" height="30"/><rect x="925" y="142" width="18" height="42"/>
    <rect x="1078" y="163" width="14" height="26"/><rect x="1112" y="208" width="18" height="34"/>
  </g>
  <g fill="#d9a35d" opacity=".45"><rect x="878" y="207" width="25" height="4"/><rect x="1074" y="190" width="23" height="4"/></g>
</g>
<g id="booths">
  <path d="M64 349Q64 329 85 329H368Q393 329 393 354V469H64Z" fill="url(#booth)" stroke="#a66a48" stroke-width="8"/>
  <path d="M887 352Q887 329 910 329H1204Q1228 329 1228 353V469H887Z" fill="url(#booth)" stroke="#a66a48" stroke-width="8"/>
  <path d="M76 405H381M901 405H1216" stroke="#d28e60" stroke-width="7" opacity=".45"/>
  <path d="M97 469V503M355 469V503M918 469V503M1181 469V503" stroke="#171315" stroke-width="14"/>
</g>
<g id="pendant-lamps">
  <ellipse cx="312" cy="231" rx="180" ry="150" fill="url(#lamp-glow)"/>
  <path d="M312 0V117" stroke="#171416" stroke-width="8"/>
  <path d="M268 118H356L379 170H245Z" fill="#b77c47" stroke="#382722" stroke-width="8"/>
  <path d="M278 161H346L370 205H254Z" fill="#ffdda0" opacity=".88"/>
  <ellipse cx="1030" cy="231" rx="180" ry="150" fill="url(#lamp-glow)"/>
  <path d="M1030 0V117" stroke="#171416" stroke-width="8"/>
  <path d="M986 118H1074L1097 170H963Z" fill="#b77c47" stroke="#382722" stroke-width="8"/>
  <path d="M996 161H1064L1088 205H972Z" fill="#ffdda0" opacity=".88"/>
</g>
<g id="counter-details" fill="none" stroke="#c38a5d" stroke-width="7" opacity=".4">
  <path d="M0 475H1280"/><path d="M440 0V298M760 0V298" stroke="#130f11" stroke-width="14"/>
  <path d="M478 92H715M478 116H715" stroke="#8a6854" stroke-width="4"/>
</g>
</svg>
